<svg width="1600" height="500" viewBox="0 0 1600 500" fill="none" xmlns="http://www.w3.org/2000/svg">
  <g transform="translate(270 163) scale(1.0855263158)"><path fill-rule="evenodd" clip-rule="evenodd" d="M272 64C257.089 64 244.561 53.8018 241.008 40H204.331C196.51 40 189.835 45.6546 188.549 53.3696L187.234 61.2608C185.985 68.7531 182.195 75.2738 176.835 80C182.195 84.7262 185.985 91.2469 187.234 98.7392L188.549 106.63C189.835 114.345 196.51 120 204.331 120H209.008C212.561 106.198 225.089 96 240 96C257.673 96 272 110.327 272 128C272 145.673 257.673 160 240 160C225.089 160 212.56 149.802 209.008 136H204.331C188.688 136 175.338 124.691 172.766 109.261L171.451 101.37C170.165 93.6546 163.49 88 155.669 88H142.992C139.44 101.802 126.911 112 112 112C97.0893 112 84.5605 101.802 81.0081 88H62.9919C59.4395 101.802 46.9107 112 32 112C14.3269 112 0 97.6731 0 80C0 62.3269 14.3269 48 32 48C46.9107 48 59.4395 58.1982 62.9919 72H81.0081C84.5605 58.1982 97.0893 48 112 48C126.911 48 139.44 58.1982 142.992 72H155.669C163.49 72 170.165 66.3454 171.451 58.6304L172.766 50.7392C175.338 35.3092 188.688 24 204.331 24L241.008 24C244.56 10.1982 257.089 0 272 0C289.673 0 304 14.3269 304 32C304 49.6731 289.673 64 272 64ZM272 48C280.837 48 288 40.8366 288 32C288 23.1634 280.837 16 272 16C263.163 16 256 23.1634 256 32C256 40.8366 263.163 48 272 48ZM32 96C40.8366 96 48 88.8366 48 80C48 71.1634 40.8366 64 32 64C23.1634 64 16 71.1634 16 80C16 88.8366 23.1634 96 32 96ZM128 80C128 88.8366 120.837 96 112 96C103.163 96 96 88.8366 96 80C96 71.1634 103.163 64 112 64C120.837 64 128 71.1634 128 80ZM256 128C256 136.837 248.837 144 240 144C231.163 144 224 136.837 224 128C224 119.163 231.163 112 240 112C248.837 112 256 119.163 256 128Z" fill="#EA4B71"/></g>
  <rect x="745" y="244" width="80" height="12" rx="6" fill="#7b8492"/>
  <rect x="779" y="210" width="12" height="80" rx="6" fill="#7b8492"/>
  <g transform="translate(970 168) scale(0.7465277778)">
    <path d="M568.003 115.821L517.278 27.9661C507.183 10.4816 489.084 0.0227367 468.894 0.0227367C448.727 0.0227367 430.674 10.4361 420.556 27.8752L343.251 161.749H242.755C236.23 161.749 230.386 158.384 227.135 152.745C223.861 147.106 223.861 140.376 227.135 134.715L277.861 46.8603C281.112 41.2216 286.955 37.8338 293.481 37.8338C300.006 37.8338 305.827 41.1988 309.101 46.8603L312.125 52.0897C313.353 54.2042 315.604 55.5002 318.036 55.5002C320.469 55.5002 322.743 54.1815 323.948 52.067L337.385 28.5118C338.795 26.0335 338.522 22.9413 336.703 20.7586C325.699 7.57131 309.874 0 293.322 0C292.662 0 292.003 0 291.321 0.0454733C272.04 0.75031 254.76 11.1864 245.074 27.9434L200.215 105.657L155.81 29.1484C145.465 11.2092 126.594 0.0227367 106.608 0.0227367C105.949 0.0227367 105.289 0.0227367 104.607 0.06821C85.3265 0.773047 68.0467 11.2092 58.3608 27.9661L7.65806 115.821C-6.25678 139.899 -0.868187 168.82 21.05 187.759C29.8945 195.422 41.6039 199.628 54.0181 199.628H148.648C151.081 199.628 153.332 198.332 154.56 196.217L168.52 172.026C169.748 169.911 169.748 167.319 168.52 165.205C167.292 163.09 165.041 161.794 162.608 161.794H56.0417C49.5163 161.794 43.6729 158.429 40.4216 152.79C37.1475 147.152 37.1475 140.422 40.4216 134.76L91.1471 46.9057C94.3985 41.2671 100.242 37.8793 106.767 37.8793C113.293 37.8793 119.113 41.2443 122.387 46.9057L194.826 172.526C195.031 172.89 195.258 173.208 195.531 173.526C198.76 178.665 202.83 183.485 207.786 187.782C216.631 195.444 228.34 199.651 240.754 199.651H321.424L315.581 209.769C314.353 211.883 314.353 214.475 315.581 216.59C316.809 218.704 319.059 220 321.492 220H349.436C351.868 220 354.119 218.704 355.347 216.59L364.396 200.901L367.17 196.468C367.17 196.468 367.261 196.331 367.284 196.263L453.274 46.9285C456.525 41.2898 462.369 37.902 468.894 37.902C475.42 37.902 481.263 41.2671 484.514 46.9285L535.24 134.783C538.491 140.422 538.514 147.174 535.24 152.813C531.988 158.452 526.145 161.84 519.62 161.84H418.669C416.236 161.84 413.985 163.136 412.757 165.25L398.774 189.442C397.546 191.556 397.546 194.148 398.774 196.263C400.002 198.377 402.253 199.673 404.686 199.673H518.21C539.81 199.673 559.295 188.237 569.026 169.843C578.053 152.79 577.666 132.623 567.981 115.843L568.003 115.821Z" fill="#05070a"/>
  </g>
</svg>
